<svg width="345" height="365" viewBox="0 0 345 365" fill="none" xmlns="http://www.w3.org/2000/svg">
<rect x="143" y="111" width="96" height="166.425" rx="48" transform="rotate(-30 143 111)" fill="#3974FC"/>
<rect x="118.212" y="63" width="96" height="166.425" rx="48" transform="rotate(30 118.212 63)" fill="#3974FC"/>
<g filter="url(#filter0_f_683_3764)">
<circle cx="214.267" cy="164.023" r="43.5" fill="#2663EF"/>
</g>
<g filter="url(#filter1_f_683_3764)">
<circle cx="130.267" cy="164.023" r="43.5" fill="#2663EF"/>
</g>
<rect x="71.0005" y="111" width="96" height="166.425" rx="48" transform="rotate(-30 71.0005 111)" fill="#3974FC"/>
<rect x="190.212" y="63" width="96" height="166.425" rx="48" transform="rotate(30 190.212 63)" fill="#3974FC"/>
<path d="M90.8727 299.998C88.6734 299.998 86.8889 298.218 86.8837 296.018L86.8407 277.948L77.0114 294.457C76.4002 295.484 75.2936 296.113 74.0988 296.113V296.113C72.9155 296.113 71.8178 295.496 71.2028 294.485L61.4307 278.42V296.008C61.4307 298.211 59.6443 299.998 57.4407 299.998V299.998C55.2371 299.998 53.4507 298.211 53.4507 296.008V267.743C53.4507 265.26 55.4632 263.248 57.9457 263.248V263.248C59.5219 263.248 60.9829 264.073 61.7962 265.424L74.2407 286.085L86.4908 265.431C87.2935 264.078 88.7505 263.248 90.3241 263.248V263.248C92.7805 263.248 94.7739 265.235 94.7809 267.692L94.8618 295.997C94.8681 298.205 93.0803 299.998 90.8727 299.998V299.998Z" fill="#3F3E43"/>
<path d="M130.682 285.98V285.98C130.682 287.228 129.562 288.185 128.314 288.185H109.935C109.535 288.185 109.237 288.556 109.362 288.935C109.822 290.335 110.664 291.467 111.887 292.333C113.322 293.348 115.107 293.855 117.242 293.855C118.712 293.855 120.007 293.645 121.127 293.225C121.261 293.173 121.394 293.117 121.525 293.057C123.237 292.285 125.377 292.261 126.65 293.641V293.641C127.809 294.898 127.859 296.875 126.457 297.853C124.003 299.563 120.862 300.418 117.032 300.418C113.847 300.418 111.03 299.805 108.58 298.58C106.13 297.32 104.24 295.588 102.91 293.383C101.58 291.178 100.915 288.675 100.915 285.875C100.915 283.11 101.562 280.625 102.857 278.42C104.187 276.18 105.99 274.448 108.265 273.223C110.575 271.963 113.147 271.333 115.982 271.333C118.747 271.333 121.25 271.928 123.49 273.118C125.73 274.308 127.48 276.023 128.74 278.263C130.035 280.468 130.682 283.04 130.682 285.98ZM116.035 277.528C114.18 277.528 112.622 278.053 111.362 279.103C110.102 280.153 109.332 281.588 109.052 283.408H122.965C122.685 281.623 121.915 280.205 120.655 279.155C119.395 278.07 117.855 277.528 116.035 277.528Z" fill="#3F3E43"/>
<path d="M160.81 261.043C163.072 261.043 164.905 262.876 164.905 265.138V296.086C164.905 298.247 163.154 299.998 160.994 299.998H160.337C158.54 299.998 157.082 298.54 157.082 296.743V296.743C155.052 299.193 152.112 300.418 148.262 300.418C145.602 300.418 143.187 299.823 141.017 298.633C138.882 297.443 137.202 295.745 135.977 293.54C134.752 291.335 134.14 288.78 134.14 285.875C134.14 282.97 134.752 280.415 135.977 278.21C137.202 276.005 138.882 274.308 141.017 273.118C143.187 271.928 145.602 271.333 148.262 271.333C151.867 271.333 154.685 272.47 156.715 274.745V265.138C156.715 262.876 158.548 261.043 160.81 261.043V261.043ZM149.68 293.698C151.745 293.698 153.46 292.998 154.825 291.598C156.19 290.163 156.872 288.255 156.872 285.875C156.872 283.495 156.19 281.605 154.825 280.205C153.46 278.77 151.745 278.053 149.68 278.053C147.58 278.053 145.847 278.77 144.482 280.205C143.117 281.605 142.435 283.495 142.435 285.875C142.435 288.255 143.117 290.163 144.482 291.598C145.847 292.998 147.58 293.698 149.68 293.698Z" fill="#3F3E43"/>
<path d="M210.485 299.998C208.285 299.998 206.501 298.218 206.496 296.018L206.458 280.209C206.456 279.574 205.62 279.345 205.296 279.89L196.623 294.457C196.012 295.484 194.905 296.113 193.711 296.113V296.113C192.527 296.113 191.43 295.496 190.815 294.485L182.201 280.325C181.873 279.786 181.043 280.018 181.043 280.65V296.008C181.043 298.211 179.256 299.998 177.053 299.998V299.998C174.849 299.998 173.062 298.211 173.062 296.008V267.743C173.062 265.26 175.075 263.248 177.557 263.248V263.248C179.134 263.248 180.595 264.073 181.408 265.424L193.853 286.085L206.103 265.431C206.905 264.078 208.362 263.248 209.936 263.248V263.248C212.392 263.248 214.386 265.235 214.393 267.692L214.474 295.997C214.48 298.205 212.692 299.998 210.485 299.998V299.998Z" fill="#3F3E43"/>
<path d="M236.592 285.56L231.657 290.705V295.771C231.657 298.106 229.764 299.998 227.43 299.998V299.998C225.096 299.998 223.204 298.106 223.204 295.771V267.474C223.204 265.14 225.096 263.248 227.43 263.248V263.248C229.764 263.248 231.657 265.14 231.657 267.474V280.415L246.906 264.33C247.561 263.639 248.471 263.248 249.423 263.248V263.248C252.452 263.248 254.025 266.859 251.963 269.077L242.157 279.628L253.268 293.671C255.294 296.231 253.471 299.998 250.207 299.998V299.998C249.033 299.998 247.921 299.469 247.18 298.559L236.592 285.56Z" fill="#3F3E43"/>
<path d="M277.974 263.248C281.229 263.248 284.046 263.79 286.426 264.875C288.841 265.96 290.696 267.5 291.991 269.495C293.286 271.49 293.934 273.853 293.934 276.583C293.934 279.278 293.286 281.64 291.991 283.67C290.696 285.665 288.841 287.205 286.426 288.29C284.046 289.34 281.229 289.865 277.974 289.865H270.571V295.745C270.571 298.094 268.667 299.998 266.319 299.998V299.998C263.97 299.998 262.066 298.094 262.066 295.745V270.748C262.066 266.606 265.424 263.248 269.566 263.248H277.974ZM277.501 282.935C280.056 282.935 281.999 282.393 283.329 281.308C284.659 280.188 285.324 278.613 285.324 276.583C285.324 274.518 284.659 272.943 283.329 271.858C281.999 270.738 280.056 270.178 277.501 270.178H273.071C271.691 270.178 270.571 271.297 270.571 272.678V280.435C270.571 281.816 271.691 282.935 273.071 282.935H277.501Z" fill="#3F3E43"/>
<defs>
<filter id="filter0_f_683_3764" x="116.767" y="66.5229" width="195" height="195" filterUnits="userSpaceOnUse" color-interpolation-filters="sRGB">
<feFlood flood-opacity="0" result="BackgroundImageFix"/>
<feBlend mode="normal" in="SourceGraphic" in2="BackgroundImageFix" result="shape"/>
<feGaussianBlur stdDeviation="27" result="effect1_foregroundBlur_683_3764"/>
</filter>
<filter id="filter1_f_683_3764" x="32.7666" y="66.5229" width="195" height="195" filterUnits="userSpaceOnUse" color-interpolation-filters="sRGB">
<feFlood flood-opacity="0" result="BackgroundImageFix"/>
<feBlend mode="normal" in="SourceGraphic" in2="BackgroundImageFix" result="shape"/>
<feGaussianBlur stdDeviation="27" result="effect1_foregroundBlur_683_3764"/>
</filter>
</defs>
</svg>
